<svg viewBox="0 0 270 60" xmlns="http://www.w3.org/2000/svg" fill-rule="evenodd" clip-rule="evenodd" stroke-linejoin="round" stroke-miterlimit="1.414"><g fill-rule="nonzero"><path d="M141.551 32.319V21.83c0-.179.006-.42.017-.72.012-.301.026-.592.041-.874.016-.328.035-.675.059-1.042h-.094l-2.883 13.125h-2.66l-2.906-13.125h-.094c.016.382.035.742.059 1.078.008.14.013.287.017.439.004.152.01.299.018.44a12.142 12.142 0 0 1 .023.679v10.489h-2.613V15.854h4.313l2.039 9.07c.031.133.064.289.099.469.035.179.071.369.106.568l.111.621a146.74 146.74 0 0 1 .34 2.069h.094a128.197 128.197 0 0 1 .269-2.122c.031-.21.063-.416.094-.615s.062-.385.094-.556c.031-.172.062-.317.093-.434l2.016-9.07h4.172v16.465h-2.824zm5.543 0V15.854h10.488v2.742h-7.418v3.926h6.363v2.742h-6.363v4.324h7.559v2.731h-10.629zm23.976 0V21.83c0-.179.006-.42.018-.72.012-.301.025-.592.041-.874.015-.328.035-.675.058-1.042h-.093l-2.883 13.125h-2.66l-2.907-13.125h-.093c.015.382.035.742.058 1.078.008.14.014.287.018.439.004.152.01.299.017.44a16.987 16.987 0 0 1 .024.679v10.489h-2.613V15.854h4.312l2.039 9.07c.031.133.065.289.1.469.035.179.07.369.105.568l.112.621a146.74 146.74 0 0 1 .339 2.069h.094c.063-.524.125-1.024.188-1.5.023-.204.05-.411.082-.622l.093-.615c.032-.199.063-.385.094-.556.031-.172.063-.317.094-.434l2.016-9.07h4.171v16.465h-2.824zm10.653-16.758a7.42 7.42 0 0 1 2.074.281 4.726 4.726 0 0 1 1.699.873c.484.395.869.898 1.154 1.512.285.613.428 1.342.428 2.185v.293h-3.141v-.222c0-.696-.197-1.248-.591-1.659-.395-.41-.944-.615-1.647-.615-.75 0-1.322.164-1.717.492a1.56 1.56 0 0 0-.591 1.254c0 .414.115.756.345 1.026.231.269.533.5.908.691.375.191.801.359 1.278.504.476.144.965.303 1.465.475.5.171.988.373 1.465.603a5.03 5.03 0 0 1 1.277.879c.375.355.678.795.908 1.318.231.524.346 1.164.346 1.922 0 .946-.143 1.75-.428 2.414a4.19 4.19 0 0 1-1.195 1.623 4.846 4.846 0 0 1-1.834.914 8.976 8.976 0 0 1-2.344.287c-.758 0-1.48-.107-2.168-.322a5.336 5.336 0 0 1-1.816-.967 4.639 4.639 0 0 1-1.248-1.605c-.309-.641-.463-1.383-.463-2.227 0-.093.004-.189.011-.287.008-.097.012-.177.012-.24h3.199c0 .023-.004.078-.011.164a3.064 3.064 0 0 0 .164 1.289c.117.32.289.596.515.826.227.231.502.409.826.534.325.125.698.187 1.12.187.461 0 .851-.057 1.171-.17.321-.113.579-.262.774-.445a1.64 1.64 0 0 0 .422-.621c.086-.231.129-.467.129-.709 0-.391-.075-.725-.223-1.002a2.216 2.216 0 0 0-.609-.715 4.083 4.083 0 0 0-.897-.516c-.34-.144-.701-.281-1.084-.41-.383-.129-.777-.26-1.183-.392a11.266 11.266 0 0 1-1.184-.463 6.66 6.66 0 0 1-1.084-.627 4.096 4.096 0 0 1-.896-.873 4.003 4.003 0 0 1-.61-1.207c-.148-.465-.222-1.01-.222-1.635 0-.781.15-1.461.451-2.039.3-.578.703-1.059 1.207-1.442a5.205 5.205 0 0 1 1.752-.855 7.619 7.619 0 0 1 2.086-.281zm-51.024 24.293h3.07v13.582h6.961v2.883h-10.031V39.854zm24.762 16.465h-3.141l-1.008-3.235h-6.07l-.984 3.235h-2.977l5.309-16.465h3.574l5.297 16.465zm-7.219-13.7c-.047.289-.098.567-.152.832l-.153.727c-.054.258-.113.48-.175.668l-1.676 5.496h4.383l-1.653-5.496a18.425 18.425 0 0 1-.187-.715c-.063-.258-.113-.5-.152-.727a12.232 12.232 0 0 1-.141-.785h-.094zm8.684-2.765h7.078a5.21 5.21 0 0 1 1.793.298c.547.2 1.019.477 1.418.833.398.355.711.783.937 1.283.227.5.34 1.054.34 1.664 0 .476-.064.916-.193 1.318a3.746 3.746 0 0 1-2.326 2.432v.094c.406.125.787.312 1.142.562a4.064 4.064 0 0 1 1.541 2.104c.149.449.223.935.223 1.459 0 .695-.131 1.314-.393 1.857a4.227 4.227 0 0 1-1.06 1.389 4.658 4.658 0 0 1-1.553.873 5.809 5.809 0 0 1-1.869.299h-7.078V39.854zm3.07 9.386v4.348h3.504c.32 0 .615-.045.885-.135a2.01 2.01 0 0 0 .703-.398c.199-.176.355-.393.469-.651.113-.257.17-.554.17-.89 0-.313-.049-.608-.147-.885a2.048 2.048 0 0 0-.439-.727 2.018 2.018 0 0 0-.739-.486 2.834 2.834 0 0 0-1.043-.176h-3.363zm0-6.644v3.926h3.164c.367 0 .688-.055.961-.164.273-.11.502-.256.686-.44.183-.183.32-.398.41-.644.09-.247.135-.51.135-.791 0-.625-.188-1.096-.563-1.413-.375-.316-.867-.474-1.477-.474h-3.316zm17.344-3.035c1.062 0 2.017.172 2.865.515a5.449 5.449 0 0 1 2.156 1.571c.59.703 1.041 1.589 1.354 2.66.312 1.07.469 2.332.469 3.785 0 1.453-.157 2.713-.469 3.779-.313 1.067-.764 1.951-1.354 2.655a5.446 5.446 0 0 1-2.156 1.57c-.848.344-1.803.515-2.865.515-1.063 0-2.016-.171-2.86-.515a5.462 5.462 0 0 1-2.15-1.57c-.59-.704-1.041-1.588-1.353-2.655-.313-1.066-.469-2.326-.469-3.779 0-1.453.156-2.715.469-3.785.312-1.071.763-1.957 1.353-2.66a5.465 5.465 0 0 1 2.15-1.571c.844-.343 1.797-.515 2.86-.515zm0 2.648c-.61 0-1.145.121-1.606.363-.461.243-.843.59-1.148 1.043-.305.454-.533 1.006-.686 1.659-.152.652-.228 1.388-.228 2.209v1.207c0 .82.076 1.556.228 2.209.153.652.381 1.205.686 1.658a3.12 3.12 0 0 0 1.148 1.043c.461.242.996.363 1.606.363.609 0 1.144-.121 1.605-.363.461-.242.846-.59 1.155-1.043.308-.453.539-1.006.691-1.658a9.772 9.772 0 0 0 .228-2.209v-1.207c0-.821-.076-1.557-.228-2.209-.152-.653-.383-1.205-.691-1.659a3.18 3.18 0 0 0-1.155-1.043c-.461-.242-.996-.363-1.605-.363zm12.176 7.242v6.868h-3.071V39.854h6.891c.828 0 1.557.117 2.185.351.629.235 1.155.561 1.577.979.421.418.74.914.955 1.488.215.574.322 1.201.322 1.881 0 .5-.065.969-.193 1.406a4.298 4.298 0 0 1-2.573 2.824l3.176 7.536h-3.34l-2.742-6.868h-3.187zm0-6.855v4.148h3.386c.75 0 1.297-.193 1.641-.58.344-.387.516-.924.516-1.611 0-.602-.163-1.078-.487-1.43-.324-.351-.842-.527-1.553-.527h-3.503zm23.871 13.723h-3.141l-1.008-3.235h-6.07l-.984 3.235h-2.977l5.309-16.465h3.574l5.297 16.465zm-7.219-13.7c-.047.289-.098.567-.152.832l-.153.727c-.054.258-.113.48-.176.668l-1.675 5.496h4.382l-1.652-5.496a18.425 18.425 0 0 1-.187-.715c-.063-.258-.114-.5-.153-.727a12.968 12.968 0 0 1-.14-.785h-.094zm17.437-.023h-4.078v13.723h-3.07V42.596h-4.078v-2.742h11.226v2.742zm7.7-3.035c1.062 0 2.017.172 2.865.515a5.449 5.449 0 0 1 2.156 1.571c.59.703 1.041 1.589 1.354 2.66.312 1.07.468 2.332.468 3.785 0 1.453-.156 2.713-.468 3.779-.313 1.067-.764 1.951-1.354 2.655a5.446 5.446 0 0 1-2.156 1.57c-.848.344-1.803.515-2.865.515-1.063 0-2.016-.171-2.86-.515a5.462 5.462 0 0 1-2.15-1.57c-.59-.704-1.041-1.588-1.354-2.655-.312-1.066-.468-2.326-.468-3.779 0-1.453.156-2.715.468-3.785.313-1.071.764-1.957 1.354-2.66a5.465 5.465 0 0 1 2.15-1.571c.844-.343 1.797-.515 2.86-.515zm0 2.648c-.61 0-1.145.121-1.606.363a3.12 3.12 0 0 0-1.148 1.043c-.305.454-.533 1.006-.686 1.659-.152.652-.228 1.388-.228 2.209v1.207c0 .82.076 1.556.228 2.209.153.652.381 1.205.686 1.658.304.453.687.801 1.148 1.043.461.242.996.363 1.606.363.609 0 1.144-.121 1.605-.363a3.16 3.16 0 0 0 1.154-1.043c.309-.453.539-1.006.692-1.658a9.772 9.772 0 0 0 .228-2.209v-1.207c0-.821-.076-1.557-.228-2.209-.153-.653-.383-1.205-.692-1.659a3.17 3.17 0 0 0-1.154-1.043c-.461-.242-.996-.363-1.605-.363zm12.175 7.242v6.868h-3.07V39.854h6.891c.828 0 1.556.117 2.185.351.629.235 1.155.561 1.576.979.422.418.741.914.956 1.488.214.574.322 1.201.322 1.881 0 .5-.065.969-.194 1.406a4.363 4.363 0 0 1-.55 1.195 4.303 4.303 0 0 1-2.022 1.629l3.176 7.536h-3.34l-2.742-6.868h-3.188zm0-6.855v4.148h3.387c.75 0 1.297-.193 1.641-.58.344-.387.515-.924.515-1.611 0-.602-.162-1.078-.486-1.43-.324-.351-.842-.527-1.553-.527h-3.504zm17.086 7.512v6.211h-3.07v-6.211l-5.039-10.254h3.234l3.364 7.23h.093l3.34-7.23h3.094l-5.016 10.254z" fill="#600"/><path d="M43.325 2.395l-9.486 16.92-9.101-16.92H4.391L33.928 57.6l20.297-37.51h17.67l-19.91 36.978h20.516l19.761-37.127h19.907l9.414-17.546H43.325z" fill="#fe5b00"/><path d="M23.948 3.708l9.863 18.342L44.097 3.708h75.278l-8.001 14.912H91.466L71.704 55.749H54.188L74.096 18.77H53.434L33.93 54.817 6.587 3.708h17.361z" fill="#fff"/><path d="M8.789 5.028h14.372l10.628 19.76L44.87 5.028h72.308l-6.588 12.276H90.68L70.917 54.43h-14.52l19.909-36.975H52.653L33.941 52.036 8.789 5.028z" fill="#600"/></g></svg>