<svg width="45" height="45" viewBox="0 0 45 45" xmlns="http://www.w3.org/2000/svg"><title>search</title><path d="M25.375 20.951c0-1.218-.433-2.26-1.299-3.125-.865-.866-1.907-1.298-3.125-1.298s-2.26.432-3.125 1.298c-.866.866-1.298 1.907-1.298 3.125s.432 2.26 1.298 3.125c.866.866 1.907 1.299 3.125 1.299s2.26-.433 3.125-1.299c.866-.865 1.299-1.907 1.299-3.125zm5.055 8.215c0 .342-.125.639-.375.889s-.547.375-.889.375c-.355 0-.652-.125-.888-.375l-3.387-3.377a6.761 6.761 0 0 1-3.94 1.224 6.83 6.83 0 0 1-2.7-.548 6.95 6.95 0 0 1-2.222-1.48 6.95 6.95 0 0 1-1.481-2.222 6.83 6.83 0 0 1-.548-2.7c0-.942.183-1.842.548-2.701a6.95 6.95 0 0 1 1.481-2.222 6.95 6.95 0 0 1 2.222-1.481 6.83 6.83 0 0 1 2.7-.548 6.83 6.83 0 0 1 2.7.548 6.95 6.95 0 0 1 2.222 1.481 6.95 6.95 0 0 1 1.481 2.222 6.83 6.83 0 0 1 .548 2.7 6.761 6.761 0 0 1-1.224 3.94l3.387 3.387c.243.243.365.54.365.888z" fill="#FFF" fill-rule="evenodd"/></svg>