<?xml version="1.0" encoding="UTF-8" standalone="no"?>
<svg width="45px" height="45px" viewBox="0 0 45 45" version="1.1" xmlns="http://www.w3.org/2000/svg" xmlns:xlink="http://www.w3.org/1999/xlink">
    <!-- Generator: Sketch 43.2 (39069) - http://www.bohemiancoding.com/sketch -->
    <title>search</title>
    <desc>Created with Sketch.</desc>
    <defs></defs>
    <g id="Page-1" stroke="none" stroke-width="1" fill="none" fill-rule="evenodd">
        <g id="search" fill="#FFFFFF">
            <path d="M25.3746156,20.951154 C25.3746156,19.7333794 24.9418184,18.6917041 24.0762111,17.8260968 C23.2106038,16.9604895 22.1689285,16.5276924 20.951154,16.5276924 C19.7333794,16.5276924 18.6917041,16.9604895 17.8260968,17.8260968 C16.9604895,18.6917041 16.5276924,19.7333794 16.5276924,20.951154 C16.5276924,22.1689285 16.9604895,23.2106038 17.8260968,24.0762111 C18.6917041,24.9418184 19.7333794,25.3746156 20.951154,25.3746156 C22.1689285,25.3746156 23.2106038,24.9418184 24.0762111,24.0762111 C24.9418184,23.2106038 25.3746156,22.1689285 25.3746156,20.951154 Z M30.4300003,29.1661541 C30.4300003,29.5084475 30.3049334,29.8046585 30.054796,30.054796 C29.8046585,30.3049334 29.5084475,30.4300003 29.1661541,30.4300003 C28.8106956,30.4300003 28.5144846,30.3049334 28.2775123,30.054796 L24.8907995,26.677957 C23.7125203,27.494195 22.3993183,27.902308 20.951154,27.902308 C20.0098472,27.902308 19.1096949,27.7196445 18.2506702,27.3543121 C17.3916454,26.9889798 16.6511179,26.4952948 16.0290655,25.8732424 C15.4070131,25.25119 14.9133282,24.5106625 14.5479958,23.6516378 C14.1826634,22.7926131 14,21.8924608 14,20.951154 C14,20.0098472 14.1826634,19.1096949 14.5479958,18.2506702 C14.9133282,17.3916454 15.4070131,16.6511179 16.0290655,16.0290655 C16.6511179,15.4070131 17.3916454,14.9133282 18.2506702,14.5479958 C19.1096949,14.1826634 20.0098472,14 20.951154,14 C21.8924608,14 22.7926131,14.1826634 23.6516378,14.5479958 C24.5106625,14.9133282 25.25119,15.4070131 25.8732424,16.0290655 C26.4952948,16.6511179 26.9889798,17.3916454 27.3543121,18.2506702 C27.7196445,19.1096949 27.902308,20.0098472 27.902308,20.951154 C27.902308,22.3993183 27.494195,23.7125203 26.677957,24.8907995 L30.0646698,28.2775123 C30.3082247,28.5210672 30.4300003,28.8172782 30.4300003,29.1661541 Z" id="icon"></path>
        </g>
    </g>
</svg>